<?xml version="1.0" encoding="UTF-8"?>
<svg version="1.1" viewBox="0 0 1440 992" width="360" height="248" xmlns="http://www.w3.org/2000/svg">
<path transform="translate(920,295)" d="m0 0h49l1 1v81l-1 44 3-3 5-11 10-19 10-17 6-11 15-27 12-21 9-17h54l-2 4-15 24-16 26-10 17-12 20-9 16 1 6 11 28 17 41 18 43 27 66-1 2h-35l-21-1-6-16-11-28-10-26-15-38-8-20-2-4-7 10-10 16-7 10-1 96-1 1h-48l-1-1v-291z" fill="#0A7289"/>
<path transform="translate(591,295)" d="m0 0h57l3 7 16 64 22 87 33 130 1 4-1 1h-50l-2-2-4-19-6-25-5-19v-3h-70l-1 10-7 29-5 22-2 6-2 1h-21l-28-1 4-19 18-74 16-66 7-28 14-57 11-44zm28 66-3 12-6 29-8 37-7 31-2 7h53l-2-10-5-21-9-40-7-32-2-13z" fill="#D98A3A"/>
<path transform="translate(812,290)" d="m0 0h14l15 2 13 4 13 7 12 12 8 14 5 16 3 14 1 14v10l-1 1h-45l-1-1-1-22-4-13-6-8-6-5-6-2h-14l-8 3-6 5-4 8-1 5v14l4 11 6 8 2 4 4 2 9 8 16 12 13 10 9 7 14 12 10 12 7 12 8 25 1 12v10l-1 13-7 23-8 13-9 10-11 8-14 6-12 3-10 1h-15l-14-2-16-6-12-7-12-12-7-11-7-16-2-10-2-23v-18h48l1 3v21l2 16 4 8 7 8 13 5h12l12-5 5-5 5-10 1-3v-20l-5-13-5-9-8-9-14-11-13-10-16-12-11-10-8-7-11-14-7-12-6-19-1-5v-20l6-21 6-11 11-12 11-8 13-6 15-3z" fill="#60656C"/>
<path transform="translate(341,295)" d="m0 0h167l1 1v44l-1 1-58 1v245h-52v-246h-57z" fill="#0D748B"/>
<path transform="translate(811,640)" d="m0 0h15l3 4 7 19 11 30 5 14v2h2l4-17 12-35 3-9 2-7 17-1 1 1 1 21v76l-2 1h-11l-1-1-1-22-1-48-5 16-12 38-6 17-5-2-8-20-12-36-4-10-1-1 1 67-2 2h-12l-1-1z" fill="#64686F"/>
<path transform="translate(326,640)" d="m0 0h15l3 2 12 36 10 28 1 1 8-26 8-24 4-9 2-7 3-1h12l1 1v76l-1 22h-12l-1-1v-64l1-6h-2l-2 11-14 43-5 16-3 1-4-5-4-10-5-16-11-35-1-2-1 68h-12l-2-1-1-97z" fill="#63686E"/>
<path transform="translate(499,640)" d="m0 0h12l4 4 18 36 10 19 4 9v-68h14l1 1v97l-1 1h-11l-3-2-10-21-10-19-13-26-1 67-1 1h-13l-1-1v-97z" fill="#63686E"/>
<path transform="translate(987,640)" d="m0 0h12l4 3 5 12 12 22 14 28 2 3v-67l1-1h14l1 1v43l-1 55h-12l-4-4-17-32-12-23-5-11v69l-1 1h-12l-1-1-1-97z" fill="#656A70"/>
<path transform="translate(686,639)" d="m0 0h9l10 3 8 6 5 8 3 7 1 8h-15l-4-10-5-6-3-1h-10l-6 3-4 7-2 7-1 14v11l1 13 5 12 6 4 3 1h8l7-6 2-6 1-13-16-1-1-3 1-9h32l1 1v42l-2 7-4-1-3-6-4 1-5 5-5 2h-20l-7-3-6-5-6-12-3-11-1-13v-18l2-12 5-12 5-6 10-6z" fill="#64696F"/>
<path transform="translate(740,640)" d="m0 0h56v12l-1 1-39 1v29h33l1 1v11l-1 1h-33v30l40 1v11l-1 1h-54l-1-1z" fill="#62676E"/>
<path transform="translate(914,640)" d="m0 0h56v13h-42l1 2v27l36 1v12l-1 1h-35l-1 31h42l1 10-2 2h-55z" fill="#61666D"/>
<path transform="translate(605,640)" d="m0 0h13l3 7 8 29 14 46 4 16-3 1h-10l-2-1-5-18v-3l-31-1-2 10-3 12-5 1-10-1 1-8 6-20 9-31 11-37zm5 23-2 6-5 20-4 12v3l2 1h22l-3-11-7-28z" fill="#62676E"/>
<path transform="translate(444,640)" d="m0 0h14l5 16 15 50 7 25 2 4v4h-13l-3-3-5-19h-30l-3 15-3 7-14-1 4-17 15-53 7-21zm6 24-3 9-8 32h23l-1-8-7-25-3-8z" fill="#63676E"/>
<path transform="translate(1075,640)" d="m0 0h57l1 3-1 10-25 1v84l-1 1h-13l-1-1-1-84h-26v-13z" fill="#646970"/>
</svg>
