<?xml version="1.0" encoding="UTF-8"?>
<svg version="1.1" viewBox="0 0 2048 479" width="1280" height="1280" xmlns="http://www.w3.org/2000/svg">
<path transform="translate(0)" d="m0 0h2048v479h-2048z" fill="#FEFEFE"/>
<path transform="translate(721,279)" d="m0 0h29l25 3 20 4 21 6 19 7 16 8 6 4 4 1 24-2h48l25 3 26 2 14 2 7 2 5 1h9l58 10 27 5 55 9 2 1 46 5 22 3 10 3h2l1-1h10l14 2 5 1h16l36 2 3 1h20l13 2 7 1 9-2h12l7 4 6 1h22l2-3 4-1 49-1 2-1h14l13 4 12-2 3-2 19-2h5l-2 2 4 1v-2l4-1 4 2 16-3 16-2 18-1 14-3v-2l20-4 14-7 8-2 1 1 7-1 12-3 18-6 46-10 24-8 17-5 15-7 7-1 3 2-3 1v2l-12 3-5 3h-2l2 2 7-1-4 3-16 7-25 8-6 1v-2l-10 4-22 6-15 2-17 5 17-3 5-1h4v3l-4 2h-9l-10 3-11 2-14 2-6 4-1 3-11 3-15 8-11 3h-14l-12 6-8 1v-2l10-4 3-2-1-1-9-1-11 5-8 1-1 2h2v2l-15 1h-17l3-3 12-6-15 3-11 4-49 8-21 2-17-4-3-2-7 1-8 1h-34l-2-1v-2l5-2-9 1-9 2-2 5-1 1h-9l-15-3-6-1h-14l-1 2-36-4-14-2h-12l2 2-1 1-24-1-7-1-1 2-2-1v2l-6-1 1-4-11-2-1 2-5-2-13-2-1-3-16-2-19-5-18-3-8-2h-12l-12-3-22-3h-23l-1 1h-7l-21-4-6-4-16-4-24-7-19-3-19-2h-10l-2-1-14-1 1 4-20-3h-6l-7 1-13 1 1 6 1 4v13l-4 13-7 11-12 13-12 10-13 8-16 8-15 5-16 3h-33l-12-3-11-6-7-8-4-8-1-4v-13l4-11 6-9 10-10 15-10 25-12 25-9 7-1-1-2-8-4-5-3h-9l-11-5-9-3-4 1h-15l-16-2-6 4-4 2-4-1-2-1-9 1-1-2 1-2-16 4-6 1 4-3 3-2h-9l-21 5-14 7-11 9h-3l1-6 6-9 11-11 16-11 13-4 22-4z" fill="#020202"/>
<path transform="translate(265,70)" d="m0 0h29l13 2 6 4 1 2v6l-7 9-13 9-16 7-22 5-4-1 1-3 21-6 16-8 12-11 1-7-2-1-13-1-33 1-35 4-40 6-4 1v45l1 11 1 1v20l-1 42-1 95-1 16-1 6h3l2-13 11-64 7-31 7-21 5-9 6-2 4 4 4 11 4 21 8 68 2 10 4-1 8-22 30-104 15-43 6-11 4-4 5 1 1 2v28l-6 59-12 110-6 68-2 26h2l2-5 16-33 13-28 10-19 9-16 7-9 2-2h3l-2 6-10 16-11 23-15 35-15 34-6 9-3 2h-7l-3-6v-32l6-72 7-65 9-84 2-21v-9l-12 34-19 62-14 47-8 23-7 13-2 1h-7l-3-3-2-12-7-63-6-36v-4l-3 3-6 22-8 40-11 64-5 23-3 6-6 1-3-2-1-6-1-33v-67l1-155-44 11-27 9-16 7-10 6-3-2 1-5 15-8 24-9 32-9 28-7 2-6 5 1 1 4 21-3 43-6z" fill="#020202"/>
<path transform="translate(1542,165)" d="m0 0h7l9 3 6 5 2 3 5-2 7-6 8-3 10 1 6 4 5 5 5 8 4 11 2 15v19l-2 32-2 17-3 5-4 4-9 1-7-3-3-7 1-14 2-19v-34l-2-13h-3l-7 11-5 12-4 13-5 5h-10l-6-3-3-4v-38l-5 2-8 18-5 19-3 21-3 27-3 6-5 3h-10l-5-3-2-4v-20l3-25 4-22 5-15 8-16 6-8 9-8z" fill="#020202"/>
<path transform="translate(883,165)" d="m0 0 11 1 6 3 7 7 4-2 8-6 7-3h7l10 5 7 8 5 11 3 14v36l-3 35-2 7-6 5-2 1h-7l-6-3-3-4v-13l2-16 1-16v-18l-2-18-2-3-7 9-5 11-5 16-4 5-2 1h-10l-6-3-3-6 1-36h-5l-2 6-6 13-5 17-3 19-3 30-3 8-6 3h-10l-6-5-1-3v-12l2-22 5-30 7-21 7-13 8-10 9-6z" fill="#020202"/>
<path transform="translate(1035,156)" d="m0 0h7l7 4 5 9 3 15 1 14 1 39v40l-4 5-5 2-9-1-4-2-3-5-1-8v-17l-27-1-1 10-4 18-4 6-2 1h-8l-7-4-3-4-1-8 7-33 8-26 10-21 8-12 11-12 8-6z" fill="#020202"/>
<path transform="translate(1248,156)" d="m0 0h7l7 4 5 9 3 16 1 12 1 34v45l-4 6-5 2-9-1-4-2-3-5-2-25-26-1-1 10-4 18-4 6-2 1h-8l-7-4-3-4-1-7 7-34 8-26 10-21 8-12 11-12 8-6z" fill="#020202"/>
<path transform="translate(551,156)" d="m0 0h7l5 3 5 6 4 16 1 8 2 54v31l-3 7-6 3-9-1-4-2-3-5-1-6-1-18-1-1-25-1-4 23-3 8-5 4h-7l-6-3-4-5-1-2v-7l8-37 8-24 8-16 7-12 12-14 10-7z" fill="#020202"/>
<path transform="translate(1345,148)" d="m0 0h13l9 2 6 4 3 4 1 8-4 7-4 3-19-1-10 4-8 6-7 8-6 12-2 6-1 13 2 9 4 6 8 4 4 1h10l7-3 4-5 1-4-6 2-2 1h-9l-6-3-3-5-1-9 3-6 6-4 8-2 15-1 11 2 6 4 4 6 2 8-1 11-3 10-7 11-9 8-12 5-5 1h-10l-16-3-14-7-6-5-7-11-4-13v-19l4-16 8-16 6-9 8-9 12-9 12-5z" fill="#020202"/>
<path transform="translate(1152,163)" d="m0 0h8l7 4 4 7-1 12-8 48-8 38-3 8-4 3-3 1h-8l-6-4-10-22-6-14-2-1-3 16-6 28-4 6-4 2-9-1-7-6-1-2v-11l11-50 8-30 5-6 4-2h9l5 5 6 12 8 18 2 4 3-16 6-35 3-9z" fill="#020202"/>
<path transform="translate(1805,163)" d="m0 0h9l6 4 4 6v10l-9 52-8 39-2 5-5 4-3 1h-7l-6-3-6-12-10-25v-2l-2 1-10 45-5 6-7 1-8-3-4-5-1-3v-7l10-46 9-35 4-6 5-3h10l5 6 11 24 4 9 6-32 4-22 3-6z" fill="#020202"/>
<path transform="translate(705,138)" d="m0 0 9 2 4 5 1 2 1 37 5-4 9-12 9-14 6-5h8l5 3 4 5v9l-8 14-7 9-10 11 5 9 8 16 4 14 1 9-2 6-5 4-2 1-9-1-7-6-6-21-7-12-2-3h-2l-5 41-4 8-4 2h-8l-6-3-3-5v-17l3-30 3-57 1-9 5-6z" fill="#020202"/>
<path transform="translate(1661,150)" d="m0 0h35l10 2 5 5 2 4v7l-4 6-2 2-5 1h-12l-16-1-3 20 14 1 7 2 4 5 2 6-2 7-6 5-2 1h-15l-6-1-3 20 12-1h25l7 3 4 6v10l-4 5-4 2-26 1-23 2h-8l-7-3-3-3-1-3v-10l8-55 6-35 4-8z" fill="#020202"/>
<path transform="translate(1426,150)" d="m0 0h35l9 1 6 5 2 4v9l-4 6-7 2h-27l-4 19 15 1 8 3 3 4 1 9-4 7-6 3h-14l-7-1-2 19h36l7 3 4 5 1 8-4 8-5 2-57 3-7-3-3-4-1-6 7-52 7-41 3-9 4-4z" fill="#020202"/>
<path transform="translate(1871,156)" d="m0 0h15l27 2 6 3 4 4 2 9-3 7-4 3h-15l-8-1v15l-3 49-2 16-4 6-9 3-7-2-4-4-5 2-15 14-15 10-19 11h-2v2h-3v-2l11-7-7 2-2-2 4-2 10-1 3-1-1-3 6-4 7-7 3-2-12 5-4-1 3-3 11-7 20-12 6-1v-12l3-47v-15h-19l-5-3-2-4v-9l4-7 6-3z" fill="#020202"/>
<path transform="translate(635,150)" d="m0 0h7l5 3 4 5 2 7-3 6-15 10-3 5v6l6 5 12 6 7 6 7 11 4 11v14l-4 12-9 10-10 6-8 3-12 1-14-3-10-6-8-9-1-5 2-5 6-5 9-1 6 3 7 4h7l9-3 4-6-1-9-5-5-8-6-11-7-8-9-4-11v-7l4-13 6-9 9-9z" fill="#020202"/>
<path transform="translate(420,156)" d="m0 0h15l27 2 8 4 4 10-2 7-5 5h-22l-5 74-3 9-6 4h-9l-6-4-2-4v-14l4-66h-20l-5-3-2-4v-9l4-6 4-3 3-1z" fill="#020202"/>
<path transform="translate(848,336)" d="m0 0 5 1 3 13 1 4-8 11-7 7-7 6-3 3-1-2-8 5-7 8-9 4-2 1h-8l-1-3h-8l-9 1v-2h-19l-3 2-5-1-3-5 1-5 3-3 9-2 1-1-3-2 1-4 6-4 10-2 5-3 4-6 6-3 6-4 17-5 30-8z" fill="#FEFEFE"/>
<path transform="translate(1030,193)" d="m0 0 2 3v28h-18l3-9 8-15z" fill="#fff"/>
<path transform="translate(1242,193)" d="m0 0h2l1 3v28h-18l3-9 8-15z" fill="#fff"/>
<path transform="translate(546,193)" d="m0 0h1l1 17v14h-18l1-5 8-16 6-9z" fill="#fff"/>
<path transform="translate(800,354)" d="m0 0 3 1-2 5-4 4h-11v-3l8-4z" fill="#020202"/>
<path transform="translate(832,344)" d="m0 0 2 1-3 2-9 1v2l-9 1v-2l14-4z" fill="#020202"/>
</svg>
